<?xml version="1.0" encoding="UTF-8"?><svg id="Layer_1" xmlns="http://www.w3.org/2000/svg" xmlns:xlink="http://www.w3.org/1999/xlink" viewBox="0 0 1393.73 866.66"><defs><style>.cls-1{stroke:url(#linear-gradient-8);}.cls-1,.cls-2,.cls-3,.cls-4,.cls-5,.cls-6,.cls-7,.cls-8,.cls-9,.cls-10,.cls-11,.cls-12,.cls-13,.cls-14,.cls-15,.cls-16,.cls-17,.cls-18,.cls-19,.cls-20,.cls-21,.cls-22,.cls-23,.cls-24,.cls-25,.cls-26,.cls-27,.cls-28,.cls-29,.cls-30,.cls-31,.cls-32,.cls-33,.cls-34,.cls-35,.cls-36,.cls-37,.cls-38,.cls-39,.cls-40,.cls-41,.cls-42,.cls-43,.cls-44,.cls-45,.cls-46,.cls-47,.cls-48,.cls-49,.cls-50,.cls-51,.cls-52,.cls-53,.cls-54{fill:none;stroke-miterlimit:10;}.cls-1,.cls-2,.cls-3,.cls-4,.cls-5,.cls-6,.cls-7,.cls-8,.cls-9,.cls-10,.cls-11,.cls-12,.cls-13,.cls-14,.cls-15,.cls-16,.cls-17,.cls-18,.cls-19,.cls-20,.cls-21,.cls-22,.cls-23,.cls-24,.cls-25,.cls-26,.cls-54{stroke-width:.76px;}.cls-2{stroke:url(#linear-gradient-3);}.cls-3{stroke:url(#linear-gradient-4);}.cls-4{stroke:url(#linear-gradient-2);}.cls-5{stroke:url(#linear-gradient-7);}.cls-6{stroke:url(#linear-gradient-6);}.cls-7{stroke:url(#linear-gradient-5);}.cls-8{stroke:url(#linear-gradient-9);}.cls-9{stroke:url(#linear-gradient-27);}.cls-10{stroke:url(#linear-gradient-25);}.cls-11{stroke:url(#linear-gradient-24);}.cls-12{stroke:url(#linear-gradient-26);}.cls-13{stroke:url(#linear-gradient-22);}.cls-14{stroke:url(#linear-gradient-21);}.cls-15{stroke:url(#linear-gradient-23);}.cls-16{stroke:url(#linear-gradient-20);}.cls-17{stroke:url(#linear-gradient-14);}.cls-18{stroke:url(#linear-gradient-16);}.cls-19{stroke:url(#linear-gradient-18);}.cls-20{stroke:url(#linear-gradient-15);}.cls-21{stroke:url(#linear-gradient-17);}.cls-22{stroke:url(#linear-gradient-19);}.cls-23{stroke:url(#linear-gradient-10);}.cls-24{stroke:url(#linear-gradient-11);}.cls-25{stroke:url(#linear-gradient-12);}.cls-26{stroke:url(#linear-gradient-13);}.cls-27{stroke:url(#linear-gradient-36);}.cls-27,.cls-28,.cls-29,.cls-30,.cls-31,.cls-32,.cls-33,.cls-34,.cls-35,.cls-36,.cls-37,.cls-38,.cls-39,.cls-40,.cls-41,.cls-42,.cls-43,.cls-44,.cls-45,.cls-46,.cls-47,.cls-48,.cls-49,.cls-50,.cls-51,.cls-52,.cls-53{stroke-width:2.94px;}.cls-28{stroke:url(#linear-gradient-37);}.cls-29{stroke:url(#linear-gradient-30);}.cls-30{stroke:url(#linear-gradient-38);}.cls-31{stroke:url(#linear-gradient-33);}.cls-32{stroke:url(#linear-gradient-39);}.cls-33{stroke:url(#linear-gradient-34);}.cls-34{stroke:url(#linear-gradient-32);}.cls-35{stroke:url(#linear-gradient-35);}.cls-36{stroke:url(#linear-gradient-31);}.cls-37{stroke:url(#linear-gradient-28);}.cls-38{stroke:url(#linear-gradient-29);}.cls-39{stroke:url(#linear-gradient-41);}.cls-40{stroke:url(#linear-gradient-40);}.cls-41{stroke:url(#linear-gradient-42);}.cls-42{stroke:url(#linear-gradient-43);}.cls-43{stroke:url(#linear-gradient-47);}.cls-44{stroke:url(#linear-gradient-48);}.cls-45{stroke:url(#linear-gradient-46);}.cls-46{stroke:url(#linear-gradient-45);}.cls-47{stroke:url(#linear-gradient-44);}.cls-48{stroke:url(#linear-gradient-49);}.cls-49{stroke:url(#linear-gradient-50);}.cls-50{stroke:url(#linear-gradient-54);}.cls-51{stroke:url(#linear-gradient-51);}.cls-52{stroke:url(#linear-gradient-52);}.cls-53{stroke:url(#linear-gradient-53);}.cls-54{stroke:url(#linear-gradient);}</style><linearGradient id="linear-gradient" x1="514.65" y1="852.32" x2="530.06" y2="852.32" gradientUnits="userSpaceOnUse"><stop offset="0" stop-color="#5068b1"/><stop offset="1" stop-color="#af6aac"/></linearGradient><linearGradient id="linear-gradient-2" x1="532.31" y1="854.32" x2="545.29" y2="854.32" xlink:href="#linear-gradient"/><linearGradient id="linear-gradient-3" x1="547.42" y1="852.2" x2="551.85" y2="852.2" xlink:href="#linear-gradient"/><linearGradient id="linear-gradient-4" x1="553.49" y1="854.45" x2="567.3" y2="854.45" xlink:href="#linear-gradient"/><linearGradient id="linear-gradient-5" x1="568.4" y1="854.45" x2="581.62" y2="854.45" xlink:href="#linear-gradient"/><linearGradient id="linear-gradient-6" x1="583.21" y1="852.2" x2="596.9" y2="852.2" xlink:href="#linear-gradient"/><linearGradient id="linear-gradient-7" x1="597.2" y1="851.69" x2="601.93" y2="851.69" xlink:href="#linear-gradient"/><linearGradient id="linear-gradient-8" x1="603.95" y1="854.32" x2="616.93" y2="854.32" xlink:href="#linear-gradient"/><linearGradient id="linear-gradient-9" x1="618.57" y1="856.95" x2="632.27" y2="856.95" xlink:href="#linear-gradient"/><linearGradient id="linear-gradient-10" x1="639.15" y1="852.91" x2="648.19" y2="852.91" xlink:href="#linear-gradient"/><linearGradient id="linear-gradient-11" x1="649.79" y1="852.2" x2="662.82" y2="852.2" xlink:href="#linear-gradient"/><linearGradient id="linear-gradient-12" x1="664.43" y1="854.45" x2="677.85" y2="854.45" xlink:href="#linear-gradient"/><linearGradient id="linear-gradient-13" x1="685.19" y1="852.2" x2="689.68" y2="852.2" xlink:href="#linear-gradient"/><linearGradient id="linear-gradient-14" x1="691.93" y1="854.32" x2="704.91" y2="854.32" xlink:href="#linear-gradient"/><linearGradient id="linear-gradient-15" x1="707.04" y1="854.32" x2="720.02" y2="854.32" xlink:href="#linear-gradient"/><linearGradient id="linear-gradient-16" x1="721.62" y1="854.45" x2="735.42" y2="854.45" xlink:href="#linear-gradient"/><linearGradient id="linear-gradient-17" x1="735.41" y1="854.41" x2="749.89" y2="854.41" xlink:href="#linear-gradient"/><linearGradient id="linear-gradient-18" x1="749.87" y1="854.45" x2="762.49" y2="854.45" xlink:href="#linear-gradient"/><linearGradient id="linear-gradient-19" x1="763.65" y1="852.91" x2="772.7" y2="852.91" xlink:href="#linear-gradient"/><linearGradient id="linear-gradient-20" x1="773.35" y1="854.45" x2="787.16" y2="854.45" xlink:href="#linear-gradient"/><linearGradient id="linear-gradient-21" x1="788.8" y1="854.31" x2="797.6" y2="854.31" xlink:href="#linear-gradient"/><linearGradient id="linear-gradient-22" x1="804.43" y1="852.2" x2="808.93" y2="852.2" xlink:href="#linear-gradient"/><linearGradient id="linear-gradient-23" x1="811.18" y1="854.32" x2="824.16" y2="854.32" xlink:href="#linear-gradient"/><linearGradient id="linear-gradient-24" x1="825.65" y1="854.45" x2="838.38" y2="854.45" xlink:href="#linear-gradient"/><linearGradient id="linear-gradient-25" x1="839.8" y1="851.69" x2="844.53" y2="851.69" xlink:href="#linear-gradient"/><linearGradient id="linear-gradient-26" x1="846.06" y1="852.31" x2="859.73" y2="852.31" xlink:href="#linear-gradient"/><linearGradient id="linear-gradient-27" x1="861.45" y1="854.45" x2="874.87" y2="854.45" xlink:href="#linear-gradient"/><linearGradient id="linear-gradient-28" x1="0" y1="40.04" x2="59.63" y2="40.04" xlink:href="#linear-gradient"/><linearGradient id="linear-gradient-29" x1="68.3" y1="47.77" x2="118.52" y2="47.77" xlink:href="#linear-gradient"/><linearGradient id="linear-gradient-30" x1="126.76" y1="39.56" x2="143.92" y2="39.56" xlink:href="#linear-gradient"/><linearGradient id="linear-gradient-31" x1="150.26" y1="48.27" x2="203.68" y2="48.27" xlink:href="#linear-gradient"/><linearGradient id="linear-gradient-32" x1="207.95" y1="48.27" x2="259.12" y2="48.27" xlink:href="#linear-gradient"/><linearGradient id="linear-gradient-33" x1="265.24" y1="39.56" x2="318.21" y2="39.56" xlink:href="#linear-gradient"/><linearGradient id="linear-gradient-34" x1="319.39" y1="37.61" x2="337.69" y2="37.61" xlink:href="#linear-gradient"/><linearGradient id="linear-gradient-35" x1="345.5" y1="47.77" x2="395.71" y2="47.77" xlink:href="#linear-gradient"/><linearGradient id="linear-gradient-36" x1="402.05" y1="57.92" x2="455.07" y2="57.92" xlink:href="#linear-gradient"/><linearGradient id="linear-gradient-37" x1="481.67" y1="42.33" x2="516.67" y2="42.33" xlink:href="#linear-gradient"/><linearGradient id="linear-gradient-38" x1="522.87" y1="39.56" x2="573.28" y2="39.56" xlink:href="#linear-gradient"/><linearGradient id="linear-gradient-39" x1="579.49" y1="48.27" x2="631.42" y2="48.27" xlink:href="#linear-gradient"/><linearGradient id="linear-gradient-40" x1="659.81" y1="39.56" x2="677.21" y2="39.56" xlink:href="#linear-gradient"/><linearGradient id="linear-gradient-41" x1="685.92" y1="47.77" x2="736.13" y2="47.77" xlink:href="#linear-gradient"/><linearGradient id="linear-gradient-42" x1="744.38" y1="47.77" x2="794.59" y2="47.77" xlink:href="#linear-gradient"/><linearGradient id="linear-gradient-43" x1="800.76" y1="48.27" x2="854.18" y2="48.27" xlink:href="#linear-gradient"/><linearGradient id="linear-gradient-44" x1="854.15" y1="48.11" x2="910.17" y2="48.11" xlink:href="#linear-gradient"/><linearGradient id="linear-gradient-45" x1="910.07" y1="48.26" x2="958.91" y2="48.26" xlink:href="#linear-gradient"/><linearGradient id="linear-gradient-46" x1="963.42" y1="42.33" x2="998.42" y2="42.33" xlink:href="#linear-gradient"/><linearGradient id="linear-gradient-47" x1="1000.94" y1="48.27" x2="1054.36" y2="48.27" xlink:href="#linear-gradient"/><linearGradient id="linear-gradient-48" x1="1060.7" y1="47.74" x2="1094.75" y2="47.74" xlink:href="#linear-gradient"/><linearGradient id="linear-gradient-49" x1="1121.19" y1="39.56" x2="1138.59" y2="39.56" xlink:href="#linear-gradient"/><linearGradient id="linear-gradient-50" x1="1147.3" y1="47.77" x2="1197.51" y2="47.77" xlink:href="#linear-gradient"/><linearGradient id="linear-gradient-51" x1="1203.28" y1="48.27" x2="1252.53" y2="48.27" xlink:href="#linear-gradient"/><linearGradient id="linear-gradient-52" x1="1258.04" y1="37.61" x2="1276.33" y2="37.61" xlink:href="#linear-gradient"/><linearGradient id="linear-gradient-53" x1="1282.24" y1="39.98" x2="1335.15" y2="39.98" xlink:href="#linear-gradient"/><linearGradient id="linear-gradient-54" x1="1341.8" y1="48.27" x2="1393.73" y2="48.27" xlink:href="#linear-gradient"/></defs><g><path class="cls-54" d="M525.95,843.36h3.74v11.48c0,1.29-.31,2.42-.92,3.38-.61,.97-1.47,1.72-2.57,2.26-1.1,.54-2.38,.81-3.84,.81s-2.75-.27-3.85-.81c-1.1-.54-1.95-1.29-2.56-2.26-.61-.97-.91-2.09-.91-3.38v-11.48h3.74v11.16c0,.67,.15,1.27,.44,1.79s.71,.93,1.26,1.23c.54,.3,1.17,.45,1.89,.45s1.36-.15,1.89-.45c.54-.3,.96-.71,1.25-1.23s.44-1.12,.44-1.79v-11.16Z"/><path class="cls-4" d="M536.36,853.37v7.66h-3.68v-13.25h3.5v2.34h.16c.29-.77,.79-1.38,1.48-1.83,.69-.45,1.53-.68,2.51-.68,.92,0,1.72,.2,2.41,.6s1.22,.98,1.6,1.72,.57,1.63,.57,2.66v8.44h-3.68v-7.78c0-.81-.2-1.45-.62-1.9-.42-.46-1-.69-1.73-.69-.49,0-.93,.11-1.31,.32s-.67,.52-.88,.93-.32,.89-.32,1.46Z"/><path class="cls-2" d="M551.47,843.36v17.67h-3.68v-17.67h3.68Z"/><path class="cls-3" d="M560.39,861.29c-1.34,0-2.5-.29-3.47-.86-.97-.57-1.73-1.37-2.26-2.4-.53-1.03-.79-2.22-.79-3.58s.26-2.57,.79-3.59c.53-1.03,1.28-1.83,2.26-2.4,.98-.57,2.13-.86,3.47-.86s2.5,.29,3.47,.86c.98,.57,1.73,1.37,2.26,2.4,.53,1.03,.79,2.22,.79,3.59s-.26,2.55-.79,3.58c-.53,1.03-1.28,1.83-2.26,2.4s-2.13,.86-3.47,.86Zm.02-2.85c.61,0,1.12-.17,1.53-.52,.41-.35,.72-.82,.93-1.43,.21-.6,.32-1.29,.32-2.06s-.11-1.46-.32-2.06-.52-1.08-.93-1.43c-.41-.35-.92-.53-1.53-.53s-1.13,.18-1.55,.53c-.42,.35-.73,.83-.94,1.43-.21,.6-.31,1.29-.31,2.06s.1,1.46,.31,2.06c.21,.6,.52,1.08,.94,1.43,.42,.35,.93,.52,1.55,.52Z"/><path class="cls-7" d="M575.3,861.29c-1.36,0-2.52-.29-3.5-.87-.98-.58-1.72-1.38-2.24-2.41-.52-1.03-.78-2.21-.78-3.56s.26-2.55,.79-3.58c.53-1.03,1.28-1.83,2.25-2.41,.97-.58,2.13-.87,3.47-.87,1.16,0,2.17,.21,3.04,.63,.87,.42,1.56,1.01,2.06,1.77s.79,1.65,.84,2.68h-3.47c-.1-.66-.36-1.19-.77-1.6s-.96-.61-1.64-.61c-.57,0-1.07,.15-1.49,.46-.42,.31-.75,.76-.99,1.34-.24,.59-.35,1.3-.35,2.13s.12,1.56,.35,2.16,.56,1.04,.99,1.35c.43,.31,.92,.47,1.49,.47,.42,0,.8-.09,1.13-.26,.34-.17,.62-.42,.84-.75,.22-.33,.37-.73,.44-1.2h3.47c-.06,1.01-.33,1.9-.82,2.67-.49,.77-1.17,1.37-2.03,1.8-.86,.43-1.88,.65-3.06,.65Z"/><polygon class="cls-6" points="591.87 861.04 596.18 861.04 591.01 853.52 595.93 847.78 591.71 847.78 587.46 852.81 587.26 852.81 587.26 843.36 583.59 843.36 583.59 861.04 587.26 861.04 587.26 856.83 588.26 855.69 591.87 861.04"/><path class="cls-5" d="M599.57,846.07c-.55,0-1.01-.18-1.4-.54-.39-.36-.58-.8-.58-1.31s.2-.95,.59-1.32c.39-.37,.86-.55,1.4-.55s1.01,.18,1.4,.54c.39,.36,.58,.8,.58,1.31s-.19,.95-.58,1.32c-.39,.37-.86,.55-1.4,.55Zm-1.85,14.96v-13.25h3.68v13.25h-3.68Z"/><path class="cls-1" d="M608.01,853.37v7.66h-3.68v-13.25h3.5v2.34h.16c.29-.77,.79-1.38,1.48-1.83,.69-.45,1.53-.68,2.51-.68,.92,0,1.72,.2,2.41,.6s1.22,.98,1.6,1.72,.57,1.63,.57,2.66v8.44h-3.68v-7.78c0-.81-.2-1.45-.62-1.9-.42-.46-1-.69-1.73-.69-.49,0-.93,.11-1.31,.32s-.67,.52-.88,.93-.32,.89-.32,1.46Z"/><path class="cls-8" d="M625.41,866.28c-1.19,0-2.21-.16-3.06-.49-.85-.33-1.52-.77-2.02-1.32-.5-.56-.83-1.19-.97-1.88l3.4-.46c.1,.26,.27,.51,.49,.74,.22,.23,.52,.42,.89,.56,.37,.14,.82,.21,1.36,.21,.8,0,1.46-.19,1.98-.58,.52-.39,.78-1.04,.78-1.95v-2.42h-.16c-.16,.37-.4,.72-.72,1.04-.32,.33-.74,.6-1.24,.8-.51,.21-1.11,.31-1.81,.31-1,0-1.9-.23-2.71-.69-.81-.46-1.46-1.17-1.94-2.13-.48-.96-.72-2.17-.72-3.64s.24-2.76,.73-3.76,1.14-1.76,1.95-2.26c.81-.5,1.71-.75,2.68-.75,.74,0,1.36,.12,1.86,.38,.5,.25,.9,.56,1.21,.93,.31,.37,.55,.74,.71,1.09h.14v-2.23h3.65v13.38c0,1.13-.28,2.07-.83,2.83-.55,.76-1.32,1.33-2.29,1.71s-2.1,.57-3.36,.57Zm.08-8.2c.59,0,1.09-.15,1.51-.44,.41-.3,.73-.72,.95-1.28,.22-.56,.33-1.22,.33-2s-.11-1.45-.33-2.02-.54-1.02-.95-1.33c-.41-.32-.92-.47-1.51-.47s-1.11,.16-1.53,.49c-.41,.33-.73,.78-.94,1.35-.21,.58-.32,1.24-.32,1.99s.11,1.43,.32,1.98c.22,.56,.53,.98,.94,1.29,.41,.3,.92,.45,1.52,.45Z"/><path class="cls-23" d="M647.17,858.14c-.09,.02-.22,.04-.4,.07-.17,.03-.35,.05-.52,.05-.25,0-.46-.04-.65-.11-.19-.07-.33-.21-.44-.39-.1-.19-.16-.45-.16-.79v-6.42h2.49v-2.76h-2.49v-3.18h-3.68v3.18h-1.81v2.76h1.81v6.9c0,.87,.18,1.59,.54,2.16s.88,.99,1.55,1.26c.66,.27,1.44,.39,2.33,.35,.48-.02,.88-.06,1.22-.14,.33-.08,.59-.15,.78-.2l-.58-2.74Z"/><path class="cls-24" d="M653.85,853.37v7.66h-3.68v-17.67h3.57v6.76h.16c.3-.78,.78-1.4,1.45-1.84,.67-.45,1.5-.67,2.51-.67,.92,0,1.72,.2,2.41,.6,.69,.4,1.22,.97,1.61,1.72,.38,.75,.57,1.64,.57,2.67v8.44h-3.68v-7.78c0-.82-.2-1.45-.62-1.91s-1-.68-1.75-.68c-.5,0-.94,.11-1.32,.32s-.68,.52-.9,.93c-.22,.41-.33,.89-.33,1.46Z"/><path class="cls-25" d="M677.46,855.35v-1.01c0-1.13-.16-2.11-.47-2.96-.32-.84-.76-1.54-1.32-2.1s-1.23-.98-1.98-1.26c-.76-.28-1.57-.42-2.45-.42-1.3,0-2.43,.29-3.4,.86-.96,.58-1.71,1.38-2.24,2.41-.53,1.03-.79,2.23-.79,3.59s.26,2.61,.79,3.63c.53,1.02,1.28,1.81,2.26,2.36,.98,.56,2.15,.83,3.52,.83,1.09,0,2.06-.17,2.89-.5,.84-.34,1.52-.81,2.05-1.42s.88-1.32,1.06-2.14l-3.4-.22c-.13,.33-.31,.62-.55,.85-.24,.23-.53,.4-.87,.52-.34,.12-.71,.17-1.12,.17-.62,0-1.15-.13-1.6-.39s-.8-.63-1.04-1.1c-.24-.48-.37-1.04-.37-1.7h0s9.03,0,9.03,0Zm-7.65-4.61c.43-.26,.92-.38,1.48-.38s1.01,.12,1.41,.35c.41,.23,.72,.55,.95,.96,.23,.41,.35,.88,.35,1.41h-5.56c.02-.48,.14-.91,.36-1.31,.24-.43,.58-.77,1.01-1.03Z"/><path class="cls-26" d="M689.3,843.36v17.67h-3.74v-17.67h3.74Z"/><path class="cls-17" d="M695.99,853.37v7.66h-3.68v-13.25h3.5v2.34h.16c.29-.77,.79-1.38,1.48-1.83,.69-.45,1.53-.68,2.51-.68,.92,0,1.72,.2,2.41,.6s1.22,.98,1.6,1.72,.57,1.63,.57,2.66v8.44h-3.68v-7.78c0-.81-.2-1.45-.62-1.9-.42-.46-1-.69-1.73-.69-.49,0-.93,.11-1.31,.32s-.67,.52-.88,.93-.32,.89-.32,1.46Z"/><path class="cls-20" d="M711.1,853.37v7.66h-3.68v-13.25h3.5v2.34h.16c.29-.77,.79-1.38,1.48-1.83,.69-.45,1.53-.68,2.51-.68,.92,0,1.72,.2,2.41,.6s1.22,.98,1.6,1.72,.57,1.63,.57,2.66v8.44h-3.68v-7.78c0-.81-.2-1.45-.62-1.9-.42-.46-1-.69-1.73-.69-.49,0-.93,.11-1.31,.32s-.67,.52-.88,.93-.32,.89-.32,1.46Z"/><path class="cls-18" d="M728.52,861.29c-1.34,0-2.5-.29-3.47-.86-.97-.57-1.73-1.37-2.26-2.4-.53-1.03-.79-2.22-.79-3.58s.26-2.57,.79-3.59c.53-1.03,1.28-1.83,2.26-2.4,.98-.57,2.13-.86,3.47-.86s2.5,.29,3.47,.86c.98,.57,1.73,1.37,2.26,2.4,.53,1.03,.79,2.22,.79,3.59s-.26,2.55-.79,3.58c-.53,1.03-1.28,1.83-2.26,2.4s-2.13,.86-3.47,.86Zm.02-2.85c.61,0,1.12-.17,1.53-.52,.41-.35,.72-.82,.93-1.43,.21-.6,.32-1.29,.32-2.06s-.11-1.46-.32-2.06-.52-1.08-.93-1.43c-.41-.35-.92-.53-1.53-.53s-1.13,.18-1.55,.53c-.42,.35-.73,.83-.94,1.43-.21,.6-.31,1.29-.31,2.06s.1,1.46,.31,2.06c.21,.6,.52,1.08,.94,1.43,.42,.35,.93,.52,1.55,.52Z"/><path class="cls-21" d="M749.36,847.78l-4.63,13.25h-4.14l-4.63-13.25h3.88l2.75,9.48h.14l2.74-9.48h3.89Z"/><path class="cls-19" d="M754.65,861.29c-.85,0-1.6-.15-2.26-.44s-1.18-.74-1.57-1.32-.57-1.31-.57-2.19c0-.74,.13-1.35,.41-1.86,.27-.5,.64-.9,1.1-1.21,.47-.3,1-.54,1.59-.69s1.22-.26,1.88-.33c.77-.08,1.39-.16,1.86-.23s.81-.18,1.03-.32,.32-.36,.32-.64v-.05c0-.55-.17-.97-.51-1.27s-.83-.45-1.45-.45c-.66,0-1.19,.15-1.58,.44-.39,.29-.65,.65-.78,1.09l-3.4-.28c.17-.81,.51-1.5,1.02-2.09,.51-.59,1.16-1.04,1.96-1.36,.8-.32,1.73-.48,2.79-.48,.74,0,1.44,.09,2.12,.26,.68,.17,1.28,.44,1.8,.8,.53,.36,.94,.83,1.25,1.39s.46,1.24,.46,2.03v8.94h-3.49v-1.84h-.1c-.21,.41-.5,.78-.85,1.09s-.79,.56-1.29,.73c-.5,.18-1.08,.26-1.73,.26Zm1.05-2.54c.54,0,1.02-.11,1.43-.32s.74-.51,.98-.88,.35-.79,.35-1.25v-1.41c-.11,.07-.27,.14-.47,.2s-.42,.11-.67,.16-.49,.09-.74,.13-.47,.07-.67,.1c-.43,.06-.81,.16-1.13,.3-.32,.14-.57,.32-.75,.56-.18,.23-.27,.52-.27,.87,0,.5,.18,.88,.55,1.14,.37,.26,.83,.39,1.39,.39Z"/><path class="cls-22" d="M771.68,858.14c-.09,.02-.22,.04-.4,.07-.17,.03-.35,.05-.52,.05-.25,0-.46-.04-.65-.11-.19-.07-.33-.21-.44-.39-.1-.19-.16-.45-.16-.79v-6.42h2.49v-2.76h-2.49v-3.18h-3.68v3.18h-1.81v2.76h1.81v6.9c0,.87,.18,1.59,.54,2.16s.88,.99,1.55,1.26c.66,.27,1.44,.39,2.33,.35,.48-.02,.88-.06,1.22-.14,.33-.08,.59-.15,.78-.2l-.58-2.74Z"/><path class="cls-16" d="M780.26,861.29c-1.34,0-2.5-.29-3.47-.86-.97-.57-1.73-1.37-2.26-2.4-.53-1.03-.79-2.22-.79-3.58s.26-2.57,.79-3.59c.53-1.03,1.28-1.83,2.26-2.4,.98-.57,2.13-.86,3.47-.86s2.5,.29,3.47,.86c.98,.57,1.73,1.37,2.26,2.4,.53,1.03,.79,2.22,.79,3.59s-.26,2.55-.79,3.58c-.53,1.03-1.28,1.83-2.26,2.4s-2.13,.86-3.47,.86Zm.02-2.85c.61,0,1.12-.17,1.53-.52,.41-.35,.72-.82,.93-1.43,.21-.6,.32-1.29,.32-2.06s-.11-1.46-.32-2.06-.52-1.08-.93-1.43c-.41-.35-.92-.53-1.53-.53s-1.13,.18-1.55,.53c-.42,.35-.73,.83-.94,1.43-.21,.6-.31,1.29-.31,2.06s.1,1.46,.31,2.06c.21,.6,.52,1.08,.94,1.43,.42,.35,.93,.52,1.55,.52Z"/><path class="cls-14" d="M789.18,861.04v-13.25h3.56v2.31h.14c.24-.82,.65-1.45,1.22-1.87,.57-.42,1.23-.63,1.97-.63,.18,0,.38,.01,.6,.03s.4,.05,.56,.09v3.26c-.17-.05-.41-.1-.72-.14-.31-.04-.58-.06-.84-.06-.54,0-1.02,.12-1.45,.35-.42,.23-.76,.56-1,.97-.24,.41-.37,.89-.37,1.43v7.5h-3.68Z"/><path class="cls-13" d="M808.55,843.36v17.67h-3.74v-17.67h3.74Z"/><path class="cls-15" d="M815.24,853.37v7.66h-3.68v-13.25h3.5v2.34h.16c.29-.77,.79-1.38,1.48-1.83,.69-.45,1.53-.68,2.51-.68,.92,0,1.72,.2,2.41,.6s1.22,.98,1.6,1.72,.57,1.63,.57,2.66v8.44h-3.68v-7.78c0-.81-.2-1.45-.62-1.9-.42-.46-1-.69-1.73-.69-.49,0-.93,.11-1.31,.32s-.67,.52-.88,.93-.32,.89-.32,1.46Z"/><path class="cls-11" d="M837.7,851.56l-3.37,.21c-.06-.29-.18-.55-.37-.78s-.44-.42-.75-.56c-.31-.14-.67-.21-1.1-.21-.57,0-1.05,.12-1.44,.36s-.59,.56-.59,.95c0,.32,.13,.58,.38,.8s.69,.39,1.3,.53l2.4,.48c1.29,.26,2.25,.69,2.88,1.28,.63,.59,.95,1.36,.95,2.31,0,.87-.25,1.63-.76,2.29-.51,.66-1.21,1.17-2.09,1.53-.88,.37-1.9,.55-3.05,.55-1.75,0-3.15-.37-4.19-1.1-1.04-.73-1.65-1.73-1.82-3l3.62-.19c.11,.54,.37,.94,.79,1.22,.42,.28,.96,.42,1.61,.42s1.16-.12,1.56-.38c.39-.25,.59-.57,.6-.97,0-.33-.15-.61-.42-.82-.28-.22-.7-.38-1.28-.5l-2.3-.46c-1.29-.26-2.26-.71-2.89-1.35s-.94-1.45-.94-2.44c0-.85,.23-1.58,.69-2.2,.46-.62,1.12-1.09,1.96-1.42,.84-.33,1.83-.5,2.96-.5,1.67,0,2.99,.35,3.96,1.06,.96,.71,1.53,1.67,1.69,2.89Z"/><path class="cls-10" d="M842.16,846.07c-.55,0-1.01-.18-1.4-.54-.39-.36-.58-.8-.58-1.31s.2-.95,.59-1.32c.39-.37,.86-.55,1.4-.55s1.01,.18,1.4,.54c.39,.36,.58,.8,.58,1.31s-.19,.95-.58,1.32c-.39,.37-.86,.55-1.4,.55Zm-1.85,14.96v-13.25h3.68v13.25h-3.68Z"/><path class="cls-12" d="M851.81,861.25c-1.01,0-1.92-.26-2.73-.78-.81-.52-1.46-1.29-1.93-2.3s-.71-2.26-.71-3.74,.24-2.78,.73-3.79,1.14-1.77,1.95-2.27c.81-.5,1.71-.75,2.68-.75,.74,0,1.36,.12,1.86,.38s.9,.56,1.21,.93c.31,.37,.54,.74,.7,1.09h.11v-6.64h3.67v17.67h-3.62v-2.12h-.16c-.17,.37-.42,.73-.73,1.09s-.72,.66-1.22,.89c-.5,.24-1.1,.35-1.82,.35Zm1.16-2.93c.59,0,1.09-.16,1.51-.49,.41-.32,.73-.78,.95-1.37,.22-.59,.33-1.27,.33-2.06s-.11-1.47-.33-2.05-.54-1.03-.95-1.35c-.41-.32-.92-.47-1.51-.47s-1.11,.16-1.53,.49c-.41,.33-.73,.78-.94,1.36-.21,.58-.32,1.25-.32,2.02s.11,1.45,.32,2.04c.22,.59,.53,1.05,.94,1.38,.41,.33,.92,.5,1.52,.5Z"/><path class="cls-9" d="M874.49,855.35v-1.01c0-1.13-.16-2.11-.47-2.96-.32-.84-.76-1.54-1.32-2.1s-1.23-.98-1.98-1.26c-.76-.28-1.57-.42-2.45-.42-1.3,0-2.43,.29-3.4,.86-.96,.58-1.71,1.38-2.24,2.41-.53,1.03-.79,2.23-.79,3.59s.26,2.61,.79,3.63c.53,1.02,1.28,1.81,2.26,2.36,.98,.56,2.15,.83,3.52,.83,1.09,0,2.06-.17,2.89-.5,.84-.34,1.52-.81,2.05-1.42s.88-1.32,1.06-2.14l-3.4-.22c-.13,.33-.31,.62-.55,.85-.24,.23-.53,.4-.87,.52-.34,.12-.71,.17-1.12,.17-.62,0-1.15-.13-1.6-.39s-.8-.63-1.04-1.1c-.24-.48-.37-1.04-.37-1.7h0s9.03,0,9.03,0Zm-7.65-4.61c.43-.26,.92-.38,1.48-.38s1.01,.12,1.41,.35c.41,.23,.72,.55,.95,.96,.23,.41,.35,.88,.35,1.41h-5.56c.02-.48,.14-.91,.36-1.31,.24-.43,.58-.77,1.01-1.03Z"/></g><g><path class="cls-37" d="M43.7,5.37h14.46V49.78c0,4.99-1.19,9.35-3.56,13.09-2.37,3.74-5.68,6.65-9.93,8.73-4.25,2.08-9.2,3.12-14.86,3.12s-10.64-1.04-14.89-3.12c-4.25-2.08-7.56-4.99-9.92-8.73-2.36-3.74-3.54-8.1-3.54-13.09V5.37H15.92V48.54c0,2.6,.57,4.92,1.72,6.94s2.77,3.62,4.86,4.77c2.09,1.16,4.53,1.74,7.31,1.74s5.25-.58,7.33-1.74c2.08-1.16,3.7-2.75,4.84-4.77s1.72-4.34,1.72-6.94V5.37Z"/><path class="cls-38" d="M84,44.1v29.65h-14.22V22.47h13.55v9.05h.6c1.13-2.98,3.04-5.35,5.71-7.09,2.67-1.75,5.91-2.62,9.71-2.62,3.56,0,6.67,.78,9.31,2.34s4.71,3.78,6.18,6.66,2.2,6.31,2.2,10.3v32.65h-14.22v-30.11c.02-3.14-.78-5.59-2.4-7.36-1.63-1.77-3.86-2.65-6.71-2.65-1.92,0-3.6,.41-5.06,1.24s-2.59,2.02-3.41,3.59-1.23,3.46-1.25,5.66Z"/><path class="cls-29" d="M142.45,5.37V73.75h-14.22V5.37h14.22Z"/><path class="cls-36" d="M176.97,74.75c-5.19,0-9.67-1.11-13.44-3.32-3.77-2.21-6.68-5.31-8.73-9.28-2.05-3.97-3.07-8.59-3.07-13.84s1.02-9.93,3.07-13.9c2.05-3.97,4.96-7.07,8.73-9.28,3.77-2.21,8.25-3.32,13.44-3.32s9.66,1.11,13.44,3.32c3.77,2.21,6.68,5.31,8.73,9.28,2.05,3.97,3.07,8.61,3.07,13.9s-1.02,9.87-3.07,13.84c-2.05,3.97-4.96,7.07-8.73,9.28-3.77,2.21-8.25,3.32-13.44,3.32Zm.07-11.02c2.36,0,4.33-.67,5.91-2.02,1.58-1.35,2.78-3.19,3.59-5.52,.81-2.34,1.22-5,1.22-7.98s-.41-5.64-1.22-7.98-2.01-4.18-3.59-5.54c-1.58-1.36-3.55-2.04-5.91-2.04s-4.38,.68-5.99,2.04c-1.61,1.36-2.83,3.2-3.64,5.54-.81,2.34-1.22,5-1.22,7.98s.4,5.64,1.22,7.98c.81,2.34,2.03,4.18,3.64,5.52,1.61,1.35,3.61,2.02,5.99,2.02Z"/><path class="cls-34" d="M234.66,74.75c-5.25,0-9.77-1.12-13.54-3.36-3.77-2.24-6.67-5.35-8.68-9.33-2.02-3.99-3.02-8.57-3.02-13.76s1.02-9.87,3.06-13.84c2.04-3.97,4.93-7.08,8.7-9.31,3.76-2.24,8.24-3.36,13.42-3.36,4.47,0,8.39,.81,11.75,2.44,3.36,1.62,6.02,3.9,7.98,6.84s3.04,6.39,3.24,10.35h-13.42c-.38-2.56-1.37-4.62-2.99-6.19s-3.72-2.35-6.33-2.35c-2.2,0-4.12,.6-5.76,1.79-1.64,1.19-2.91,2.92-3.82,5.19-.91,2.27-1.37,5.02-1.37,8.25s.45,6.05,1.35,8.35,2.17,4.04,3.82,5.24c1.65,1.2,3.57,1.8,5.78,1.8,1.62,0,3.09-.33,4.39-1,1.3-.67,2.38-1.64,3.24-2.92,.86-1.28,1.42-2.82,1.69-4.62h13.42c-.22,3.92-1.29,7.36-3.19,10.33-1.9,2.97-4.52,5.29-7.86,6.96-3.34,1.67-7.29,2.5-11.85,2.5Z"/><polygon class="cls-31" points="298.76 73.75 315.42 73.75 295.43 44.68 314.45 22.47 298.13 22.47 281.7 41.93 280.93 41.93 280.93 5.37 266.71 5.37 266.71 73.75 280.93 73.75 280.93 57.47 284.79 53.07 298.76 73.75"/><path class="cls-33" d="M328.54,15.86c-2.11,0-3.92-.7-5.43-2.1-1.5-1.4-2.25-3.09-2.25-5.08s.76-3.68,2.27-5.09c1.51-1.41,3.32-2.12,5.41-2.12s3.92,.7,5.43,2.1c1.5,1.4,2.25,3.09,2.25,5.07s-.75,3.68-2.25,5.09c-1.5,1.41-3.31,2.12-5.43,2.12Zm-7.15,57.89V22.47h14.22v51.28h-14.22Z"/><path class="cls-35" d="M361.19,44.1v29.65h-14.22V22.47h13.55v9.05h.6c1.13-2.98,3.04-5.35,5.71-7.09,2.67-1.75,5.91-2.62,9.71-2.62,3.56,0,6.67,.78,9.31,2.34s4.71,3.78,6.18,6.66c1.47,2.88,2.2,6.31,2.2,10.3v32.65h-14.22v-30.11c.02-3.14-.78-5.59-2.4-7.36-1.63-1.77-3.86-2.65-6.71-2.65-1.92,0-3.6,.41-5.06,1.24s-2.59,2.02-3.41,3.59-1.23,3.46-1.25,5.66Z"/><path class="cls-27" d="M428.52,94.05c-4.61,0-8.55-.63-11.83-1.89-3.28-1.26-5.89-2.97-7.83-5.12-1.94-2.16-3.19-4.59-3.77-7.28l13.15-1.77c.4,1.02,1.04,1.98,1.9,2.87,.87,.89,2.02,1.61,3.45,2.15,1.44,.55,3.19,.82,5.26,.82,3.09,0,5.65-.75,7.66-2.25,2.01-1.5,3.02-4.01,3.02-7.53v-9.38h-.6c-.62,1.42-1.56,2.77-2.8,4.04-1.25,1.27-2.85,2.3-4.81,3.1-1.96,.8-4.3,1.2-7.01,1.2-3.85,0-7.35-.9-10.5-2.69-3.15-1.79-5.65-4.54-7.51-8.25-1.86-3.71-2.79-8.4-2.79-14.07s.95-10.66,2.84-14.56c1.89-3.89,4.41-6.81,7.56-8.75,3.15-1.94,6.6-2.9,10.37-2.9,2.87,0,5.28,.48,7.21,1.45,1.94,.97,3.5,2.17,4.69,3.6,1.19,1.44,2.11,2.84,2.75,4.22h.54v-8.61h14.12v51.78c0,4.36-1.07,8.01-3.2,10.95-2.14,2.94-5.09,5.15-8.86,6.63-3.77,1.48-8.11,2.22-13,2.22Zm.3-31.72c2.29,0,4.23-.57,5.83-1.72,1.59-1.15,2.81-2.79,3.67-4.94,.86-2.15,1.29-4.72,1.29-7.73s-.42-5.61-1.27-7.83-2.07-3.93-3.67-5.16c-1.6-1.22-3.55-1.84-5.84-1.84s-4.31,.63-5.91,1.89c-1.6,1.26-2.82,3-3.64,5.22-.82,2.23-1.24,4.8-1.24,7.71s.42,5.51,1.25,7.66c.83,2.15,2.05,3.81,3.64,4.97,1.59,1.17,3.55,1.75,5.89,1.75Z"/><path class="cls-28" d="M512.72,62.53c-.36,.07-.87,.16-1.54,.28-.67,.12-1.34,.18-2,.18-.96,0-1.8-.14-2.52-.43-.72-.29-1.29-.8-1.69-1.52-.4-.72-.6-1.74-.6-3.06v-24.84h9.65v-10.68h-9.65V10.18h-14.22v12.29h-7.01v10.68h7.01v26.71c-.02,3.36,.68,6.14,2.1,8.35s3.42,3.83,5.99,4.87c2.57,1.05,5.57,1.5,9,1.37,1.85-.07,3.42-.25,4.71-.55,1.29-.3,2.29-.56,3.01-.78l-2.24-10.58Z"/><path class="cls-30" d="M538.56,44.1v29.65h-14.22V5.37h13.82V31.51h.6c1.16-3.03,3.03-5.4,5.61-7.13,2.58-1.72,5.82-2.59,9.71-2.59,3.56,0,6.67,.77,9.33,2.32,2.66,1.55,4.73,3.76,6.21,6.64,1.48,2.88,2.21,6.33,2.19,10.33v32.65h-14.22v-30.11c.02-3.16-.77-5.62-2.39-7.38s-3.87-2.64-6.76-2.64c-1.94,0-3.64,.41-5.12,1.24s-2.64,2.02-3.47,3.59c-.83,1.57-1.26,3.46-1.29,5.66Z"/><path class="cls-32" d="M629.93,51.75v-3.91c0-4.36-.61-8.17-1.84-11.43-1.23-3.26-2.93-5.97-5.13-8.13s-4.75-3.78-7.68-4.86c-2.93-1.08-6.08-1.62-9.46-1.62-5.03,0-9.41,1.11-13.14,3.34-3.73,2.23-6.62,5.33-8.66,9.31-2.05,3.98-3.07,8.61-3.07,13.89s1.02,10.09,3.07,14.04c2.05,3.95,4.97,7,8.76,9.15,3.79,2.15,8.33,3.22,13.6,3.22,4.23,0,7.96-.65,11.2-1.95,3.24-1.3,5.89-3.13,7.95-5.48s3.42-5.1,4.09-8.26l-13.15-.87c-.49,1.29-1.2,2.38-2.14,3.27-.93,.89-2.06,1.56-3.37,2-1.31,.45-2.76,.67-4.34,.67-2.38,0-4.44-.5-6.18-1.5s-3.08-2.43-4.02-4.27c-.95-1.85-1.42-4.04-1.42-6.58v-.03h34.92Zm-29.6-17.84c1.66-.99,3.57-1.49,5.73-1.49s3.89,.45,5.46,1.35c1.57,.9,2.8,2.14,3.69,3.72,.89,1.58,1.34,3.39,1.34,5.44h-21.5c.09-1.84,.54-3.53,1.4-5.06,.94-1.66,2.23-2.98,3.89-3.97Z"/><path class="cls-40" d="M675.74,5.37V73.75h-14.46V5.37h14.46Z"/><path class="cls-39" d="M701.61,44.1v29.65h-14.22V22.47h13.55v9.05h.6c1.13-2.98,3.04-5.35,5.71-7.09,2.67-1.75,5.91-2.62,9.71-2.62,3.56,0,6.67,.78,9.31,2.34s4.71,3.78,6.18,6.66,2.2,6.31,2.2,10.3v32.65h-14.22v-30.11c.02-3.14-.78-5.59-2.4-7.36-1.63-1.77-3.86-2.65-6.71-2.65-1.92,0-3.6,.41-5.06,1.24s-2.59,2.02-3.41,3.59-1.23,3.46-1.25,5.66Z"/><path class="cls-41" d="M760.07,44.1v29.65h-14.22V22.47h13.55v9.05h.6c1.13-2.98,3.04-5.35,5.71-7.09,2.67-1.75,5.91-2.62,9.71-2.62,3.56,0,6.67,.78,9.31,2.34s4.71,3.78,6.18,6.66,2.2,6.31,2.2,10.3v32.65h-14.22v-30.11c.02-3.14-.78-5.59-2.4-7.36-1.63-1.77-3.86-2.65-6.71-2.65-1.92,0-3.6,.41-5.06,1.24s-2.59,2.02-3.41,3.59-1.23,3.46-1.25,5.66Z"/><path class="cls-42" d="M827.47,74.75c-5.19,0-9.67-1.11-13.44-3.32-3.77-2.21-6.68-5.31-8.73-9.28-2.05-3.97-3.07-8.59-3.07-13.84s1.02-9.93,3.07-13.9c2.05-3.97,4.96-7.07,8.73-9.28,3.77-2.21,8.25-3.32,13.44-3.32s9.66,1.11,13.44,3.32c3.77,2.21,6.68,5.31,8.73,9.28,2.05,3.97,3.07,8.61,3.07,13.9s-1.02,9.87-3.07,13.84c-2.05,3.97-4.96,7.07-8.73,9.28s-8.25,3.32-13.44,3.32Zm.07-11.02c2.36,0,4.33-.67,5.91-2.02,1.58-1.35,2.78-3.19,3.59-5.52,.81-2.34,1.22-5,1.22-7.98s-.41-5.64-1.22-7.98-2.01-4.18-3.59-5.54c-1.58-1.36-3.55-2.04-5.91-2.04s-4.38,.68-5.99,2.04c-1.61,1.36-2.83,3.2-3.64,5.54-.81,2.34-1.22,5-1.22,7.98s.4,5.64,1.22,7.98c.81,2.34,2.03,4.18,3.64,5.52,1.61,1.35,3.61,2.02,5.99,2.02Z"/><path class="cls-47" d="M908.1,22.47l-17.93,51.28h-16.02l-17.93-51.28h15.02l10.65,36.69h.53l10.62-36.69h15.06Z"/><path class="cls-46" d="M928.56,74.72c-3.27,0-6.19-.57-8.75-1.72s-4.58-2.85-6.06-5.11-2.22-5.08-2.22-8.46c0-2.85,.52-5.24,1.57-7.18,1.05-1.94,2.47-3.49,4.27-4.67,1.8-1.18,3.86-2.07,6.16-2.67s4.72-1.02,7.26-1.27c2.98-.31,5.39-.61,7.21-.89s3.15-.69,3.97-1.25,1.24-1.38,1.24-2.47v-.2c0-2.11-.66-3.75-1.99-4.91s-3.2-1.74-5.63-1.74c-2.56,0-4.6,.56-6.11,1.69-1.51,1.12-2.51,2.53-3,4.22l-13.15-1.07c.67-3.12,1.98-5.81,3.94-8.1,1.96-2.28,4.49-4.04,7.59-5.27,3.11-1.24,6.7-1.85,10.8-1.85,2.85,0,5.58,.33,8.2,1,2.62,.67,4.94,1.7,6.98,3.1,2.04,1.4,3.65,3.2,4.82,5.39s1.77,4.81,1.77,7.86v34.59h-13.49v-7.11h-.4c-.82,1.6-1.93,3.01-3.31,4.22s-3.04,2.16-4.97,2.84c-1.94,.68-4.17,1.02-6.71,1.02Zm4.07-9.81c2.09,0,3.94-.42,5.54-1.25s2.86-1.96,3.77-3.39,1.37-3.04,1.37-4.84v-5.44c-.44,.29-1.05,.55-1.82,.78s-1.63,.44-2.59,.63-1.91,.36-2.87,.5-1.82,.27-2.6,.38c-1.67,.25-3.13,.63-4.37,1.17-1.25,.54-2.21,1.25-2.9,2.15-.69,.9-1.03,2.02-1.03,3.36,0,1.94,.71,3.41,2.12,4.42,1.41,1.01,3.21,1.52,5.39,1.52Z"/><path class="cls-45" d="M994.47,62.53c-.36,.07-.87,.16-1.54,.28-.67,.12-1.34,.18-2,.18-.96,0-1.8-.14-2.52-.43-.72-.29-1.29-.8-1.69-1.52-.4-.72-.6-1.74-.6-3.06v-24.84h9.65v-10.68h-9.65V10.18h-14.22v12.29h-7.01v10.68h7.01v26.71c-.02,3.36,.68,6.14,2.1,8.35s3.42,3.83,5.99,4.87c2.57,1.05,5.57,1.5,9,1.37,1.85-.07,3.42-.25,4.71-.55,1.29-.3,2.29-.56,3.01-.78l-2.24-10.58Z"/><path class="cls-43" d="M1027.65,74.75c-5.19,0-9.67-1.11-13.44-3.32-3.77-2.21-6.68-5.31-8.73-9.28-2.05-3.97-3.07-8.59-3.07-13.84s1.02-9.93,3.07-13.9c2.05-3.97,4.96-7.07,8.73-9.28,3.77-2.21,8.25-3.32,13.44-3.32s9.66,1.11,13.44,3.32c3.77,2.21,6.68,5.31,8.73,9.28,2.05,3.97,3.07,8.61,3.07,13.9s-1.02,9.87-3.07,13.84c-2.05,3.97-4.96,7.07-8.73,9.28-3.77,2.21-8.25,3.32-13.44,3.32Zm.07-11.02c2.36,0,4.33-.67,5.91-2.02,1.58-1.35,2.78-3.19,3.59-5.52,.81-2.34,1.22-5,1.22-7.98s-.41-5.64-1.22-7.98-2.01-4.18-3.59-5.54c-1.58-1.36-3.55-2.04-5.91-2.04s-4.38,.68-5.99,2.04c-1.61,1.36-2.83,3.2-3.64,5.54-.81,2.34-1.22,5-1.22,7.98s.4,5.64,1.22,7.98c.81,2.34,2.03,4.18,3.64,5.52,1.61,1.35,3.61,2.02,5.99,2.02Z"/><path class="cls-44" d="M1062.17,73.75V22.47h13.79v8.95h.53c.94-3.18,2.5-5.59,4.71-7.23,2.2-1.64,4.74-2.45,7.61-2.45,.71,0,1.48,.04,2.3,.13s1.55,.21,2.17,.37v12.62c-.67-.2-1.59-.38-2.77-.53-1.18-.15-2.26-.23-3.24-.23-2.09,0-3.95,.45-5.59,1.35-1.64,.9-2.93,2.15-3.87,3.76-.95,1.6-1.42,3.45-1.42,5.54v29.01h-14.22Z"/><path class="cls-48" d="M1137.12,5.37V73.75h-14.46V5.37h14.46Z"/><path class="cls-49" d="M1162.99,44.1v29.65h-14.22V22.47h13.55v9.05h.6c1.13-2.98,3.04-5.35,5.71-7.09,2.67-1.75,5.91-2.62,9.71-2.62,3.56,0,6.67,.78,9.31,2.34s4.71,3.78,6.18,6.66,2.2,6.31,2.2,10.3v32.65h-14.22v-30.11c.02-3.14-.78-5.59-2.4-7.36-1.63-1.77-3.86-2.65-6.71-2.65-1.92,0-3.6,.41-5.06,1.24s-2.59,2.02-3.41,3.59-1.23,3.46-1.25,5.66Z"/><path class="cls-51" d="M1249.89,37.09l-13.02,.8c-.22-1.11-.7-2.12-1.44-3.02s-1.7-1.62-2.89-2.17c-1.19-.55-2.61-.82-4.26-.82-2.2,0-4.06,.46-5.57,1.39s-2.27,2.15-2.27,3.69c0,1.23,.49,2.26,1.47,3.11s2.66,1.52,5.04,2.04l9.28,1.87c4.99,1.02,8.7,2.67,11.15,4.94,2.45,2.27,3.67,5.25,3.67,8.95,0,3.36-.98,6.31-2.95,8.85-1.97,2.54-4.66,4.51-8.08,5.93-3.42,1.41-7.35,2.12-11.8,2.12-6.79,0-12.19-1.42-16.21-4.26-4.02-2.84-6.37-6.7-7.06-11.6l13.99-.73c.42,2.07,1.45,3.64,3.07,4.72,1.63,1.08,3.71,1.62,6.24,1.62s4.5-.48,6.03-1.45c1.52-.97,2.3-2.22,2.32-3.76-.02-1.29-.57-2.35-1.64-3.19-1.07-.83-2.72-1.47-4.94-1.92l-8.88-1.77c-5.01-1-8.73-2.74-11.17-5.21s-3.66-5.62-3.66-9.45c0-3.29,.9-6.13,2.69-8.51,1.79-2.38,4.32-4.22,7.58-5.51,3.26-1.29,7.08-1.94,11.47-1.94,6.48,0,11.58,1.37,15.31,4.11,3.73,2.74,5.9,6.47,6.53,11.18Z"/><path class="cls-52" d="M1267.18,15.86c-2.11,0-3.92-.7-5.43-2.1-1.5-1.4-2.25-3.09-2.25-5.08s.76-3.68,2.27-5.09c1.51-1.41,3.32-2.12,5.41-2.12s3.92,.7,5.43,2.1c1.5,1.4,2.25,3.09,2.25,5.07s-.75,3.68-2.25,5.09c-1.5,1.41-3.31,2.12-5.43,2.12Zm-7.15,57.89V22.47h14.22v51.28h-14.22Z"/><path class="cls-53" d="M1304.51,74.58c-3.9,0-7.42-1.01-10.57-3.02-3.15-2.01-5.64-4.99-7.48-8.91s-2.75-8.75-2.75-14.47,.95-10.77,2.84-14.67c1.89-3.91,4.41-6.83,7.56-8.78,3.15-1.95,6.6-2.92,10.37-2.92,2.87,0,5.27,.48,7.2,1.45,1.93,.97,3.48,2.17,4.67,3.6,1.19,1.44,2.1,2.84,2.72,4.22h.43V5.37h14.19V73.75h-14.02v-8.21h-.6c-.67,1.42-1.61,2.83-2.82,4.22s-2.78,2.54-4.71,3.46c-1.93,.91-4.27,1.37-7.03,1.37Zm4.51-11.32c2.29,0,4.23-.63,5.83-1.89,1.59-1.26,2.81-3.02,3.67-5.29,.86-2.27,1.29-4.93,1.29-7.98s-.42-5.7-1.27-7.95-2.07-3.98-3.67-5.21c-1.6-1.22-3.55-1.84-5.84-1.84s-4.31,.63-5.91,1.9c-1.6,1.27-2.82,3.03-3.64,5.27-.82,2.25-1.24,4.85-1.24,7.81s.42,5.61,1.25,7.9c.83,2.28,2.05,4.06,3.64,5.34,1.59,1.28,3.55,1.92,5.89,1.92Z"/><path class="cls-50" d="M1392.24,51.75v-3.91c0-4.36-.61-8.17-1.84-11.43-1.23-3.26-2.93-5.97-5.13-8.13s-4.75-3.78-7.68-4.86c-2.93-1.08-6.08-1.62-9.46-1.62-5.03,0-9.41,1.11-13.14,3.34-3.73,2.23-6.62,5.33-8.66,9.31-2.05,3.98-3.07,8.61-3.07,13.89s1.02,10.09,3.07,14.04c2.05,3.95,4.97,7,8.76,9.15,3.79,2.15,8.33,3.22,13.6,3.22,4.23,0,7.96-.65,11.2-1.95,3.24-1.3,5.89-3.13,7.95-5.48s3.42-5.1,4.09-8.26l-13.15-.87c-.49,1.29-1.2,2.38-2.14,3.27-.93,.89-2.06,1.56-3.37,2-1.31,.45-2.76,.67-4.34,.67-2.38,0-4.44-.5-6.18-1.5-1.74-1-3.08-2.43-4.02-4.27-.95-1.85-1.42-4.04-1.42-6.58v-.03h34.92Zm-29.6-17.84c1.66-.99,3.57-1.49,5.73-1.49s3.89,.45,5.46,1.35c1.57,.9,2.8,2.14,3.69,3.72,.89,1.58,1.34,3.39,1.34,5.44h-21.5c.09-1.84,.54-3.53,1.4-5.06,.94-1.66,2.23-2.98,3.89-3.97Z"/></g></svg>